<svg width="1200" height="630" version="1.1" xmlns="http://www.w3.org/2000/svg"><path fill="rgb(0,0,0)" stroke="rgb(0,0,0)" stroke-width="1" opacity="0" d="M 0 0 L 1200 0 L 1200 630 L 0 630 L 0 0 Z M 583 76 Q 570 79 561 85 L 556 92 L 554 102 L 554 151 L 553 152 L 552 168 L 550 178 Q 542 207 524 228 L 503 248 L 475 266 L 438 284 L 414 293 L 407 294 L 393 302 Q 384 309 380 320 L 378 326 L 378 335 L 377 336 L 377 346 L 378 347 L 378 475 L 380 483 L 388 497 Q 396 507 410 512 L 416 514 L 435 516 L 442 518 L 466 530 L 502 540 L 508 540 L 528 544 L 538 544 L 546 546 L 597 549 L 598 550 L 621 550 L 622 551 L 642 551 L 643 552 L 707 552 L 708 553 L 718 553 L 719 554 L 760 554 L 767 552 L 777 546 L 787 535 L 792 524 L 793 513 L 794 512 L 792 499 L 786 486 L 796 479 Q 808 468 812 449 L 812 434 L 810 427 L 800 413 L 807 408 L 818 393 L 822 382 L 822 374 L 823 373 L 822 362 L 820 356 L 811 341 Q 804 330 788 330 Q 786 325 790 326 L 798 313 L 801 301 L 800 283 L 793 268 Q 787 259 778 254 L 768 251 L 757 251 L 756 250 L 698 250 L 697 251 L 679 252 L 673 254 L 667 254 L 644 261 L 640 260 L 640 247 Q 643 243 642 236 L 654 195 L 654 191 L 658 179 L 660 164 L 662 158 L 662 132 Q 658 115 648 104 Q 636 88 617 80 L 603 76 L 583 76 Z "></path><path fill="rgb(236,167,1)" stroke="rgb(236,167,1)" stroke-width="1" opacity="0.9882352941176471" d="M 582.5 77 L 601.5 77 L 618.5 82 Q 635 89.5 646 102.5 Q 655.2 112.8 660 127.5 L 661 131.5 L 661 157.5 L 653 194.5 L 641 236.5 L 639 247.5 L 639 263 L 657.5 257 L 679.5 253 L 687.5 253 L 688.5 252 L 698.5 252 L 699.5 251 L 754.5 251 L 755.5 252 Q 765.8 250.7 772.5 253 Q 784.4 257.1 791 266.5 Q 801.7 277.8 800 301.5 Q 796.7 320.2 784 329.5 L 794.5 331 L 801.5 334 L 813 344.5 L 821 361.5 L 822 373.5 L 820 384.5 L 816 394.5 L 802.5 410 L 798 412.5 Q 812.9 422.1 811 448.5 Q 806.6 470.1 791.5 481 L 784 485.5 Q 789.9 492.1 792 502.5 L 792 519.5 Q 788.1 536.1 776.5 545 Q 769.7 550.7 759.5 553 L 719.5 553 L 718.5 552 L 706.5 552 L 705.5 551 L 645.5 551 L 644.5 550 L 598.5 549 L 597.5 548 L 568.5 547 L 567.5 546 L 546.5 545 L 545.5 544 L 513.5 541 L 477.5 533 Q 457.3 527.2 441.5 517 L 433.5 515 L 420.5 514 L 409.5 511 Q 398.5 506.5 391 498.5 Q 382.2 489.3 379 474.5 L 379 347.5 L 378 346.5 L 378 334.5 L 379 333.5 L 379 325.5 L 384 313.5 L 395.5 301 L 406.5 295 L 422.5 291 L 444.5 282 L 476.5 266 Q 501 252.5 520 233.5 Q 539.1 213.6 549 184.5 L 553 167.5 L 554 150.5 L 555 149.5 L 555 102.5 L 557 91.5 L 560.5 86 Q 569.6 79.6 582.5 77 Z M 587 88 L 570 94 L 567 98 L 567 112 L 566 113 L 566 155 L 565 156 L 565 164 L 562 181 L 553 206 Q 544 224 531 239 L 513 256 L 479 278 L 439 297 L 408 307 L 403 310 Q 393 316 390 330 L 390 470 L 393 481 L 397 488 Q 407 502 429 503 L 432 474 L 433 473 L 434 457 L 435 456 L 435 448 L 437 445 L 453 510 L 470 518 L 507 528 L 525 530 L 526 531 L 533 531 L 534 532 L 553 533 L 554 534 L 592 536 L 593 537 L 611 537 L 612 538 L 635 538 L 620 529 Q 611 523 607 512 Q 605 498 611 492 Q 620 481 634 477 L 622 469 Q 611 462 607 448 L 607 438 L 612 426 L 623 416 L 638 409 L 631 404 Q 628 403 629 406 Q 616 421 597 429 L 571 438 L 546 443 Q 540 444 538 441 L 536 441 L 536 437 Q 563 433 581 418 Q 593 408 602 394 L 609 380 L 614 359 L 614 331 L 613 330 L 612 319 L 606 301 Q 604 289 609 285 L 628 269 Q 630 263 627 262 L 627 252 L 628 251 L 630 233 L 646 176 L 650 153 L 650 136 L 649 131 L 640 114 Q 629 100 613 92 L 598 88 L 587 88 Z M 708 262 L 707 263 L 685 264 L 663 268 L 641 275 L 631 281 Q 623 286 620 296 Q 618 308 623 314 L 634 323 L 655 330 L 678 326 L 686 326 L 687 325 L 712 325 L 713 324 L 716 325 L 743 325 L 744 326 L 768 325 L 778 320 L 784 313 L 788 304 Q 787 299 789 298 Q 789 282 782 274 Q 776 266 766 263 L 708 262 Z M 702 336 L 701 337 L 679 338 L 662 341 L 644 347 L 637 351 Q 628 356 625 367 L 625 379 L 631 390 Q 641 399 658 403 L 667 403 L 676 401 L 690 401 L 691 400 L 727 400 L 728 401 L 757 402 L 768 404 Q 786 406 797 400 Q 807 392 810 378 L 810 365 L 804 352 Q 800 345 792 342 L 761 339 L 760 338 L 749 338 L 748 337 L 702 336 Z M 689 412 L 688 413 L 669 414 L 653 417 L 637 422 L 628 427 Q 622 431 619 439 L 619 447 L 622 453 L 633 462 L 653 470 L 683 476 L 704 477 L 705 478 L 764 478 L 765 477 L 775 477 L 785 472 Q 797 463 800 445 Q 801 432 795 426 Q 790 420 783 417 L 773 415 L 762 415 L 761 414 L 751 414 L 750 413 L 736 413 L 735 412 L 689 412 Z M 655 483 L 637 488 L 626 494 L 619 503 Q 618 510 621 514 L 633 523 L 656 532 L 691 539 L 709 540 L 710 541 L 725 541 L 726 542 L 756 542 Q 765 540 771 535 Q 779 529 781 517 L 780 502 L 773 489 L 759 489 L 758 490 L 709 490 L 708 489 L 694 489 L 693 488 L 676 487 L 655 483 Z "></path><path fill="rgb(244,216,135)" stroke="rgb(244,216,135)" stroke-width="1" opacity="0.37254901960784315" d="M 582.5 76 L 602.5 76 L 613 79.5 L 611.5 80 L 602.5 77 L 582.5 77 Q 568.3 79.8 559 87.5 L 555 101.5 L 554.5 150 L 554 101.5 L 556 91.5 L 560.5 85 Q 569.6 78.6 582.5 76 Z "></path><path fill="rgb(244,216,135)" stroke="rgb(244,216,135)" stroke-width="1" opacity="0.37254901960784315" d="M 614.5 80 Q 635.5 87.5 648 103.5 Q 656.3 112.7 660 126.5 L 659 126.5 L 654 113.5 Q 647.2 102.3 637.5 94 Q 628.2 85.3 614.5 81 L 614.5 80 Z "></path><path fill="rgb(244,216,135)" stroke="rgb(244,216,135)" stroke-width="1" opacity="0.37254901960784315" d="M 660.5 128 L 662 131.5 L 662 157.5 L 660.5 163 L 660 158.5 L 661 157.5 L 661 131.5 L 660.5 128 Z "></path><path fill="rgb(244,216,135)" stroke="rgb(244,216,135)" stroke-width="1" opacity="0.37254901960784315" d="M 553.5 151 L 554 158.5 L 550.5 177 L 550 173.5 L 552 167.5 L 553.5 151 Z "></path><path fill="rgb(244,216,135)" stroke="rgb(244,216,135)" stroke-width="1" opacity="0.37254901960784315" d="M 659.5 164 L 660 169.5 L 654.5 190 L 654 187.5 L 657 178.5 L 659.5 164 Z "></path><path fill="rgb(244,216,135)" stroke="rgb(244,216,135)" stroke-width="1" opacity="0.37254901960784315" d="M 549.5 178 L 550 180.5 Q 546.1 195.6 539 207.5 L 530 221.5 L 518 236 L 516 236 L 516 238 L 514 238 Q 515.1 240.7 512.5 240 L 498.5 252 L 463.5 273 L 422.5 291 L 406.5 295 Q 395.9 298.9 389 306.5 Q 379.3 315.8 378.5 334 L 378 325.5 Q 382 310.5 392.5 302 L 406.5 294 L 413.5 293 L 437.5 284 L 474.5 266 L 502.5 248 L 524 227.5 Q 541.7 207.7 549.5 178 Z "></path><path fill="rgb(244,216,135)" stroke="rgb(244,216,135)" stroke-width="1" opacity="0.37254901960784315" d="M 653.5 191 L 654 194.5 L 642.5 235 L 642 232.5 L 653.5 191 Z "></path><path fill="rgb(244,216,135)" stroke="rgb(244,216,135)" stroke-width="1" opacity="0.37254901960784315" d="M 641.5 236 L 642 241.5 L 640.5 246 L 640 241.5 L 641.5 236 Z "></path><path fill="rgb(244,216,135)" stroke="rgb(244,216,135)" stroke-width="1" opacity="0.37254901960784315" d="M 639.5 247 L 640 259.5 L 641.5 261 L 657.5 256 L 661.5 256 L 661.5 257 L 657.5 257 L 643.5 262 L 639 262 L 639.5 247 Z "></path><path fill="rgb(244,216,135)" stroke="rgb(244,216,135)" stroke-width="1" opacity="0.37254901960784315" d="M 697.5 250 L 755.5 250 L 756.5 251 L 768 251.5 L 756.5 252 L 755.5 251 L 697.5 251 Q 695.8 253.8 689.5 252 L 689.5 251 Q 695.8 252.7 697.5 250 Z "></path><path fill="rgb(244,216,135)" stroke="rgb(244,216,135)" stroke-width="1" opacity="0.37254901960784315" d="M 678.5 252 L 688 252.5 L 678.5 253 L 663.5 256 L 663.5 255 L 678.5 252 Z "></path><path fill="rgb(244,216,135)" stroke="rgb(244,216,135)" stroke-width="1" opacity="0.37254901960784315" d="M 769.5 252 Q 785.6 255.4 793 267.5 L 798 276.5 L 800 286.5 L 799 286.5 Q 796.2 266.8 782.5 258 L 772.5 253 L 769.5 253 L 769.5 252 Z "></path><path fill="rgb(244,216,135)" stroke="rgb(244,216,135)" stroke-width="1" opacity="0.37254901960784315" d="M 800.5 288 L 801 300.5 L 800 300.5 L 800.5 288 Z "></path><path fill="rgb(244,216,135)" stroke="rgb(244,216,135)" stroke-width="1" opacity="0.37254901960784315" d="M 799.5 302 L 800 306.5 Q 796.4 318.2 790 326 L 788 326 Q 789.7 331.2 786 330 L 786 327.5 Q 793.4 321.9 797 312.5 L 799.5 302 Z "></path><path fill="rgb(244,216,135)" stroke="rgb(244,216,135)" stroke-width="1" opacity="0.37254901960784315" d="M 789.5 330 L 794.5 330 L 799.5 332 L 811 340.5 L 820 355.5 Q 822.9 360.1 822 368.5 L 821 368.5 Q 819.6 345.4 804.5 336 L 794.5 331 L 789.5 331 L 789.5 330 Z "></path><path fill="rgb(244,216,135)" stroke="rgb(244,216,135)" stroke-width="1" opacity="0.37254901960784315" d="M 377.5 335 L 378 345.5 L 377 345.5 L 377.5 335 Z "></path><path fill="rgb(244,216,135)" stroke="rgb(244,216,135)" stroke-width="1" opacity="0.37254901960784315" d="M 378.5 347 L 379 474.5 Q 382.9 492.1 394.5 502 Q 403.9 511.1 420 513.5 L 415.5 514 L 404.5 510 Q 394.8 504.8 388 496.5 L 380 482.5 L 378 474.5 L 378.5 347 Z "></path><path fill="rgb(244,216,135)" stroke="rgb(244,216,135)" stroke-width="1" opacity="0.37254901960784315" d="M 822.5 370 L 823 372.5 L 822 372.5 L 822.5 370 Z "></path><path fill="rgb(244,216,135)" stroke="rgb(244,216,135)" stroke-width="1" opacity="0.37254901960784315" d="M 821.5 374 L 822 381.5 Q 817.8 398.3 806.5 408 L 800 412.5 L 810 426.5 L 812 433.5 L 812 448.5 Q 807.9 467.9 795.5 479 L 786 485.5 L 791 495.5 L 792 501.5 L 791 501.5 L 790 495.5 L 785 485.5 L 796 478 L 802 470.5 L 809 456.5 L 811 448.5 L 811 433.5 Q 807.9 420.1 799 412.5 L 808 406 L 817 392.5 L 821 381.5 L 821.5 374 Z "></path><path fill="rgb(244,216,135)" stroke="rgb(244,216,135)" stroke-width="1" opacity="0.37254901960784315" d="M 792.5 503 L 794 511.5 L 792.5 519 L 792.5 503 Z "></path><path fill="rgb(244,216,135)" stroke="rgb(244,216,135)" stroke-width="1" opacity="0.37254901960784315" d="M 421.5 514 L 434 515.5 L 427.5 516 Q 426.3 513.8 421.5 515 L 421.5 514 Z "></path><path fill="rgb(244,216,135)" stroke="rgb(244,216,135)" stroke-width="1" opacity="0.37254901960784315" d="M 435.5 516 L 441.5 517 Q 457.3 527.2 477.5 533 L 507 539.5 L 501.5 540 L 465.5 530 L 441.5 518 L 435.5 517 L 435.5 516 Z "></path><path fill="rgb(244,216,135)" stroke="rgb(244,216,135)" stroke-width="1" opacity="0.37254901960784315" d="M 791.5 520 L 792 523.5 Q 787.4 537.9 776.5 546 L 766.5 552 L 759.5 554 L 718.5 554 L 717.5 553 L 707 552.5 L 717.5 552 L 718.5 553 L 759.5 553 Q 775.6 549.1 784 537.5 Q 789.8 530.8 791.5 520 Z "></path><path fill="rgb(244,216,135)" stroke="rgb(244,216,135)" stroke-width="1" opacity="0.37254901960784315" d="M 508.5 540 L 520 541.5 L 513.5 542 L 508.5 541 L 508.5 540 Z "></path><path fill="rgb(244,216,135)" stroke="rgb(244,216,135)" stroke-width="1" opacity="0.37254901960784315" d="M 521.5 542 L 537 543.5 L 527.5 544 Q 526.3 541.8 521.5 543 L 521.5 542 Z "></path><path fill="rgb(244,216,135)" stroke="rgb(244,216,135)" stroke-width="1" opacity="0.37254901960784315" d="M 538.5 544 L 557 545.5 L 545.5 546 Q 544 543.5 538.5 545 L 538.5 544 Z "></path><path fill="rgb(244,216,135)" stroke="rgb(244,216,135)" stroke-width="1" opacity="0.37254901960784315" d="M 558.5 546 L 583 547.5 L 567.5 548 L 566.5 547 L 558.5 547 L 558.5 546 Z "></path><path fill="rgb(244,216,135)" stroke="rgb(244,216,135)" stroke-width="1" opacity="0.37254901960784315" d="M 584.5 548 L 620 549.5 L 597.5 550 L 596.5 549 L 584.5 549 L 584.5 548 Z "></path><path fill="rgb(244,216,135)" stroke="rgb(244,216,135)" stroke-width="1" opacity="0.37254901960784315" d="M 621.5 550 L 706 551.5 L 642.5 552 L 641.5 551 L 621.5 551 L 621.5 550 Z "></path><path fill="rgb(254,201,33)" stroke="rgb(254,201,33)" stroke-width="1" opacity="0.996078431372549" d="M 590.5 88 L 594 88.5 L 590.5 89 L 590.5 88 Z "></path><path fill="rgb(254,201,33)" stroke="rgb(254,201,33)" stroke-width="1" opacity="0.996078431372549" d="M 583.5 89 L 587 89.5 L 583.5 90 L 583.5 89 Z "></path><path fill="rgb(254,201,33)" stroke="rgb(254,201,33)" stroke-width="1" opacity="0.996078431372549" d="M 596.5 89 L 602 89.5 L 596.5 90 L 596.5 89 Z "></path><path fill="rgb(254,201,33)" stroke="rgb(254,201,33)" stroke-width="1" opacity="0.996078431372549" d="M 603.5 90 L 606 90.5 L 603.5 91 L 603.5 90 Z "></path><path fill="rgb(254,201,33)" stroke="rgb(254,201,33)" stroke-width="1" opacity="0.996078431372549" d="M 607.5 91 L 616 94.5 L 614.5 95 L 607.5 92 L 607.5 91 Z "></path><path fill="rgb(254,201,33)" stroke="rgb(254,201,33)" stroke-width="1" opacity="0.996078431372549" d="M 617.5 95 L 620 96.5 L 618.5 97 L 617.5 95 Z "></path><path fill="rgb(254,201,33)" stroke="rgb(254,201,33)" stroke-width="1" opacity="0.996078431372549" d="M 568.5 98 L 569 99.5 L 568 100.5 L 567.5 110 L 567 100.5 L 568.5 98 Z "></path><path fill="rgb(254,201,33)" stroke="rgb(254,201,33)" stroke-width="1" opacity="0.996078431372549" d="M 621.5 98 L 624 99.5 L 622.5 99 L 621.5 98 Z "></path><path fill="rgb(254,201,33)" stroke="rgb(254,201,33)" stroke-width="1" opacity="0.996078431372549" d="M 625.5 100 L 626.5 102 L 625.5 100 Z "></path><path fill="rgb(254,201,33)" stroke="rgb(254,201,33)" stroke-width="1" opacity="0.996078431372549" d="M 628.5 103 L 638 111.5 L 637.5 113 L 629.5 104 L 628.5 103 Z "></path><path fill="rgb(254,201,33)" stroke="rgb(254,201,33)" stroke-width="1" opacity="0.996078431372549" d="M 567.5 111 L 568 134.5 L 567 134.5 L 567.5 111 Z "></path><path fill="rgb(254,201,33)" stroke="rgb(254,201,33)" stroke-width="1" opacity="0.996078431372549" d="M 639.5 114 L 641 116.5 L 639 115.5 L 639.5 114 Z "></path><path fill="rgb(254,201,33)" stroke="rgb(254,201,33)" stroke-width="1" opacity="0.996078431372549" d="M 644.5 122 L 647 127.5 L 646 127.5 L 644.5 122 Z "></path><path fill="rgb(254,201,33)" stroke="rgb(254,201,33)" stroke-width="1" opacity="0.996078431372549" d="M 647.5 129 L 649 135.5 L 648 135.5 L 647.5 129 Z "></path><path fill="rgb(254,201,33)" stroke="rgb(254,201,33)" stroke-width="1" opacity="0.996078431372549" d="M 649.5 138 L 650 147.5 L 649 147.5 L 649.5 138 Z "></path><path fill="rgb(254,201,33)" stroke="rgb(254,201,33)" stroke-width="1" opacity="0.996078431372549" d="M 566.5 144 L 567 150.5 L 566 150.5 L 566.5 144 Z "></path><path fill="rgb(254,201,33)" stroke="rgb(254,201,33)" stroke-width="1" opacity="0.996078431372549" d="M 648.5 149 L 649 152.5 L 648 152.5 L 648.5 149 Z "></path><path fill="rgb(254,201,33)" stroke="rgb(254,201,33)" stroke-width="1" opacity="0.996078431372549" d="M 566.5 152 L 567 158.5 L 565.5 162 L 565 159.5 L 566.5 152 Z "></path><path fill="rgb(254,201,33)" stroke="rgb(254,201,33)" stroke-width="1" opacity="0.996078431372549" d="M 648.5 155 L 649 157.5 L 647.5 161 L 647 158.5 L 648.5 155 Z "></path><path fill="rgb(254,201,33)" stroke="rgb(254,201,33)" stroke-width="1" opacity="0.996078431372549" d="M 646.5 165 L 647 168.5 L 645.5 172 L 645 169.5 L 646.5 165 Z "></path><path fill="rgb(254,201,33)" stroke="rgb(254,201,33)" stroke-width="1" opacity="0.996078431372549" d="M 564.5 167 L 565 171.5 L 564 171.5 L 564.5 167 Z "></path><path fill="rgb(254,201,33)" stroke="rgb(254,201,33)" stroke-width="1" opacity="0.996078431372549" d="M 563.5 173 L 564 176.5 L 563 176.5 L 563.5 173 Z "></path><path fill="rgb(254,201,33)" stroke="rgb(254,201,33)" stroke-width="1" opacity="0.996078431372549" d="M 644.5 175 L 645 177.5 L 644 177.5 L 644.5 175 Z "></path><path fill="rgb(254,201,33)" stroke="rgb(254,201,33)" stroke-width="1" opacity="0.996078431372549" d="M 562.5 178 L 563 181.5 L 561.5 185 L 561 182.5 L 562.5 178 Z "></path><path fill="rgb(254,201,33)" stroke="rgb(254,201,33)" stroke-width="1" opacity="0.996078431372549" d="M 560.5 186 L 561 188.5 L 556.5 198 L 557 196.5 L 560.5 186 Z "></path><path fill="rgb(254,201,33)" stroke="rgb(254,201,33)" stroke-width="1" opacity="0.996078431372549" d="M 641.5 187 L 642 189.5 L 641 193 L 639 192.5 L 641.5 187 Z "></path><path fill="rgb(254,201,33)" stroke="rgb(254,201,33)" stroke-width="1" opacity="0.996078431372549" d="M 639.5 194 L 640 196.5 L 639 196.5 L 639.5 194 Z "></path><path fill="rgb(254,201,33)" stroke="rgb(254,201,33)" stroke-width="1" opacity="0.996078431372549" d="M 638.5 198 L 639 200.5 L 637.5 204 L 636 199.5 L 638 199.5 L 638.5 198 Z "></path><path fill="rgb(254,201,33)" stroke="rgb(254,201,33)" stroke-width="1" opacity="0.996078431372549" d="M 555.5 200 L 556 201.5 L 553.5 205 L 554 203.5 L 555.5 200 Z "></path><path fill="rgb(254,201,33)" stroke="rgb(254,201,33)" stroke-width="1" opacity="0.996078431372549" d="M 552.5 206 L 553 207.5 L 548.5 215 L 549 213.5 L 552.5 206 Z "></path><path fill="rgb(254,201,33)" stroke="rgb(254,201,33)" stroke-width="1" opacity="0.996078431372549" d="M 634.5 212 L 635 214.5 L 633.5 219 L 633 214.5 L 634.5 212 Z "></path><path fill="rgb(254,201,33)" stroke="rgb(254,201,33)" stroke-width="1" opacity="0.996078431372549" d="M 547.5 216 L 546.5 218 L 547.5 216 Z "></path><path fill="rgb(254,201,33)" stroke="rgb(254,201,33)" stroke-width="1" opacity="0.996078431372549" d="M 544.5 221 L 545.5 223 L 543 222.5 L 544.5 221 Z "></path><path fill="rgb(254,201,33)" stroke="rgb(254,201,33)" stroke-width="1" opacity="0.996078431372549" d="M 631.5 223 L 632 225.5 L 631 225.5 L 631.5 223 Z "></path><path fill="rgb(254,201,33)" stroke="rgb(254,201,33)" stroke-width="1" opacity="0.996078431372549" d="M 542.5 224 L 541.5 226 L 542.5 224 Z "></path><path fill="rgb(254,201,33)" stroke="rgb(254,201,33)" stroke-width="1" opacity="0.996078431372549" d="M 540.5 227 L 542 227.5 L 540 228 Q 541.1 230.7 538.5 230 L 540.5 227 Z "></path><path fill="rgb(254,201,33)" stroke="rgb(254,201,33)" stroke-width="1" opacity="0.996078431372549" d="M 537.5 231 L 536 233.5 L 535 235.5 L 535.5 237 L 533 236.5 L 537.5 231 Z "></path><path fill="rgb(254,201,33)" stroke="rgb(254,201,33)" stroke-width="1" opacity="0.996078431372549" d="M 629.5 231 L 630 235 L 628 234.5 L 629.5 231 Z "></path><path fill="rgb(254,201,33)" stroke="rgb(254,201,33)" stroke-width="1" opacity="0.996078431372549" d="M 519.5 233 L 518.5 235 L 519.5 233 Z "></path><path fill="rgb(254,201,33)" stroke="rgb(254,201,33)" stroke-width="1" opacity="0.996078431372549" d="M 531.5 238 L 529 241.5 L 525 246.5 L 525.5 248 L 524.5 247 L 520.5 251 L 518.5 252 L 531.5 238 Z "></path><path fill="rgb(254,201,33)" stroke="rgb(254,201,33)" stroke-width="1" opacity="0.996078431372549" d="M 626.5 252 Q 626 262.5 628 269 L 624.5 271 L 627 267.5 Q 624.3 261.5 626.5 252 Z "></path><path fill="rgb(254,201,33)" stroke="rgb(254,201,33)" stroke-width="1" opacity="0.996078431372549" d="M 514.5 254 L 510.5 259 L 502.5 264 L 502.5 263 L 514.5 254 Z "></path><path fill="rgb(254,201,33)" stroke="rgb(254,201,33)" stroke-width="1" opacity="0.996078431372549" d="M 724.5 262 L 726.5 262 L 730 262.5 L 724.5 264 L 722.5 266 L 718.5 266 L 712.5 269 L 708 269 Q 709.1 271.7 706.5 271 L 692 281.5 L 689.5 285 L 688 284.5 L 685 294.5 L 685 299.5 Q 687.3 310.2 695.5 315 L 706 320 L 706.5 322 L 708.5 322 L 713 323.5 L 691.5 324 L 688 323 Q 689.1 320.3 686.5 321 L 676 311.5 L 671 301.5 L 671 294.5 L 674 286.5 L 680 278 L 686.5 273 L 688 273.5 L 690.5 270 L 706.5 263 L 723.5 263 L 724.5 262 Z "></path><path fill="rgb(254,201,33)" stroke="rgb(254,201,33)" stroke-width="1" opacity="0.996078431372549" d="M 744.5 263 L 747 263.5 L 744.5 264 L 744.5 263 Z "></path><path fill="rgb(254,201,33)" stroke="rgb(254,201,33)" stroke-width="1" opacity="0.996078431372549" d="M 753.5 263 L 757 263.5 L 753.5 264 L 753.5 263 Z "></path><path fill="rgb(254,201,33)" stroke="rgb(254,201,33)" stroke-width="1" opacity="0.996078431372549" d="M 762.5 264 L 768 264.5 L 762.5 265 L 762.5 264 Z "></path><path fill="rgb(254,201,33)" stroke="rgb(254,201,33)" stroke-width="1" opacity="0.996078431372549" d="M 499.5 265 L 501 265.5 L 490.5 272 L 491.5 270 L 499.5 265 Z "></path><path fill="rgb(254,201,33)" stroke="rgb(254,201,33)" stroke-width="1" opacity="0.996078431372549" d="M 769.5 265 L 773 266.5 L 771.5 267 L 769.5 265 Z "></path><path fill="rgb(254,201,33)" stroke="rgb(254,201,33)" stroke-width="1" opacity="0.996078431372549" d="M 621.5 266 L 624 267.5 L 622.5 268 L 621.5 266 Z "></path><path fill="rgb(254,201,33)" stroke="rgb(254,201,33)" stroke-width="1" opacity="0.996078431372549" d="M 774.5 267 L 780 271.5 L 779.5 273 L 774.5 267 Z "></path><path fill="rgb(254,201,33)" stroke="rgb(254,201,33)" stroke-width="1" opacity="0.996078431372549" d="M 622.5 271 L 614.5 280 L 608 285.5 L 607.5 287 L 607 284 L 610 282.5 L 611.5 280 L 618 275.5 Q 617.3 273.3 619.5 274 L 622.5 271 Z "></path><path fill="rgb(254,201,33)" stroke="rgb(254,201,33)" stroke-width="1" opacity="0.996078431372549" d="M 483.5 275 L 482.5 277 L 479.5 278 L 479.5 277 L 483.5 275 Z "></path><path fill="rgb(254,201,33)" stroke="rgb(254,201,33)" stroke-width="1" opacity="0.996078431372549" d="M 782.5 275 Q 786.8 280.8 788 289.5 L 787 289.5 L 786 284 L 784 283.5 L 785 281.5 L 782 276.5 L 782.5 275 Z "></path><path fill="rgb(254,201,33)" stroke="rgb(254,201,33)" stroke-width="1" opacity="0.996078431372549" d="M 702.5 277 L 701.5 279 L 702.5 277 Z "></path><path fill="rgb(254,201,33)" stroke="rgb(254,201,33)" stroke-width="1" opacity="0.996078431372549" d="M 474.5 280 L 473.5 282 L 464.5 286 L 464.5 285 L 474.5 280 Z "></path><path fill="rgb(254,201,33)" stroke="rgb(254,201,33)" stroke-width="1" opacity="0.996078431372549" d="M 462.5 286 L 461.5 288 L 456.5 290 L 456.5 289 L 462.5 286 Z "></path><path fill="rgb(254,201,33)" stroke="rgb(254,201,33)" stroke-width="1" opacity="0.996078431372549" d="M 451.5 291 L 453 291.5 L 447.5 294 L 447.5 293 L 451.5 291 Z "></path><path fill="rgb(254,201,33)" stroke="rgb(254,201,33)" stroke-width="1" opacity="0.996078431372549" d="M 605.5 292 L 606 299.5 L 605 299.5 L 605.5 292 Z "></path><path fill="rgb(254,201,33)" stroke="rgb(254,201,33)" stroke-width="1" opacity="0.996078431372549" d="M 787.5 293 L 788 301.5 L 787 301.5 L 787.5 293 Z "></path><path fill="rgb(254,201,33)" stroke="rgb(254,201,33)" stroke-width="1" opacity="0.996078431372549" d="M 444.5 294 L 446 294.5 L 440.5 297 L 440.5 296 L 444.5 294 Z "></path><path fill="rgb(254,201,33)" stroke="rgb(254,201,33)" stroke-width="1" opacity="0.996078431372549" d="M 437.5 297 L 439 297.5 L 435.5 299 L 435.5 298 L 437.5 297 Z "></path><path fill="rgb(254,201,33)" stroke="rgb(254,201,33)" stroke-width="1" opacity="0.996078431372549" d="M 427.5 301 L 426.5 303 L 424 302.5 L 427.5 301 Z "></path><path fill="rgb(254,201,33)" stroke="rgb(254,201,33)" stroke-width="1" opacity="0.996078431372549" d="M 786.5 303 L 787 305.5 L 785.5 308 L 785 306.5 L 786.5 303 Z "></path><path fill="rgb(254,201,33)" stroke="rgb(254,201,33)" stroke-width="1" opacity="0.996078431372549" d="M 391.5 304 L 389.5 307 L 391.5 304 Z "></path><path fill="rgb(254,201,33)" stroke="rgb(254,201,33)" stroke-width="1" opacity="0.996078431372549" d="M 415.5 305 L 418 305.5 L 415 306 L 414.5 308 L 413.5 306 L 415.5 305 Z "></path><path fill="rgb(254,201,33)" stroke="rgb(254,201,33)" stroke-width="1" opacity="0.996078431372549" d="M 408.5 307 Q 410.8 306.3 410 308.5 L 410 310.5 L 414 314.5 L 421.5 327 L 423 326.5 L 422 328.5 L 425 330 L 428 335.5 L 427.5 337 L 431 339.5 L 432.5 342 Q 434.8 341.3 434 343.5 L 437 348 Q 439.7 346.9 439 349.5 L 440 352 L 448 358.5 Q 447.3 360.8 449.5 360 L 452 361 Q 450.9 363.7 453.5 363 L 458 366 L 459.5 369 L 470 375 Q 468.9 377.7 471.5 377 L 480 382.5 Q 479.2 385.1 482.5 384 L 496.5 392 L 506.5 394 Q 509.5 397 515.5 397 L 517.5 399 L 530.5 400 L 536.5 402 L 564.5 402 L 565.5 401 L 578.5 400 L 591.5 396 L 593 396.5 Q 592.2 393.9 595.5 395 L 601.5 392 L 601 393.5 L 596.5 400 L 595 400.5 L 596 401.5 L 591 406.5 L 584.5 414 Q 573 424.5 557.5 431 L 544.5 435 L 536.5 436 L 535 437.5 L 534 439.5 L 536 440 Q 534.9 442.7 537.5 442 Q 540.2 444.8 546.5 444 L 576.5 437 L 593.5 431 Q 614.4 422.9 628 407.5 L 629.5 405 L 637 408.5 Q 622.1 413.1 613 423.5 L 605.5 436 L 579.5 443 L 555.5 445 L 554.5 446 L 553.5 445 L 528.5 444 L 501.5 438 L 497 436 L 496.5 438 L 495.5 435 L 488.5 433 L 480.5 428 L 478.5 428 L 462.5 420 L 443.5 406 L 442.5 408 Q 442 402.5 437.5 401 Q 430.9 393 422 389 L 420 384.5 Q 405.2 370.8 394.5 353 L 393 353.5 L 394 351.5 L 390 346.5 L 390 333.5 L 392 324.5 L 400.5 312 L 408.5 307 Z M 462 374 Q 461 377 464 376 Q 465 373 462 374 Z M 526 402 Q 525 405 528 404 Q 529 401 526 402 Z M 576 404 Q 575 407 578 406 Q 579 403 576 404 Z "></path><path fill="rgb(254,201,33)" stroke="rgb(254,201,33)" stroke-width="1" opacity="0.996078431372549" d="M 607.5 307 L 609 310.5 L 607 309.5 L 607.5 307 Z "></path><path fill="rgb(254,201,33)" stroke="rgb(254,201,33)" stroke-width="1" opacity="0.996078431372549" d="M 777.5 312 L 778.5 314 Q 775.7 314.7 777.5 312 Z "></path><path fill="rgb(254,201,33)" stroke="rgb(254,201,33)" stroke-width="1" opacity="0.996078431372549" d="M 609.5 313 L 612 323.5 L 611 323.5 Q 611.6 318.9 609 317.5 L 609 315.5 L 609.5 313 Z "></path><path fill="rgb(254,201,33)" stroke="rgb(254,201,33)" stroke-width="1" opacity="0.996078431372549" d="M 780.5 315 L 778.5 318 L 780.5 315 Z "></path><path fill="rgb(254,201,33)" stroke="rgb(254,201,33)" stroke-width="1" opacity="0.996078431372549" d="M 776.5 319 L 775.5 321 L 771.5 323 L 772.5 321 L 776.5 319 Z "></path><path fill="rgb(254,201,33)" stroke="rgb(254,201,33)" stroke-width="1" opacity="0.996078431372549" d="M 714.5 323 L 718 323.5 L 714.5 324 L 714.5 323 Z "></path><path fill="rgb(254,201,33)" stroke="rgb(254,201,33)" stroke-width="1" opacity="0.996078431372549" d="M 720.5 323 L 727 323.5 L 720.5 324 L 720.5 323 Z "></path><path fill="rgb(254,201,33)" stroke="rgb(254,201,33)" stroke-width="1" opacity="0.996078431372549" d="M 764.5 323 L 767 323.5 L 762.5 325 L 762.5 324 L 764.5 323 Z "></path><path fill="rgb(254,201,33)" stroke="rgb(254,201,33)" stroke-width="1" opacity="0.996078431372549" d="M 732.5 324 L 745 324.5 L 732.5 325 L 732.5 324 Z "></path><path fill="rgb(254,201,33)" stroke="rgb(254,201,33)" stroke-width="1" opacity="0.996078431372549" d="M 750.5 325 L 759 325.5 L 750.5 326 L 750.5 325 Z "></path><path fill="rgb(254,201,33)" stroke="rgb(254,201,33)" stroke-width="1" opacity="0.996078431372549" d="M 611.5 326 Q 614.5 325.5 613 332.5 L 612 332.5 L 611 328.5 L 611.5 326 Z "></path><path fill="rgb(254,201,33)" stroke="rgb(254,201,33)" stroke-width="1" opacity="0.996078431372549" d="M 613.5 334 L 614 338.5 L 613 338.5 L 613.5 334 Z "></path><path fill="rgb(254,201,33)" stroke="rgb(254,201,33)" stroke-width="1" opacity="0.996078431372549" d="M 731.5 337 L 764.5 339 L 769 340.5 L 765.5 341 L 764.5 340 L 755.5 340 L 752.5 341 L 750.5 340 L 739.5 343 L 736.5 342 L 734.5 344 L 718.5 348 L 704 355 L 702.5 358 L 699 359 L 695 365.5 L 694 372 Q 691 371 692 374 Q 694.7 372.9 694 375.5 L 698 381.5 L 698 384 L 700.5 384 Q 707.5 391 718.5 394 L 720 393.5 L 719.5 395 L 737.5 400 L 739.5 400 L 749 400.5 L 737.5 401 L 736.5 400 L 712.5 400 Q 711.3 397.7 706.5 399 Q 692.4 393.6 683 383.5 Q 678.8 379.2 678 371.5 L 679 366.5 L 683 359.5 L 682.5 358 L 683.5 359 L 688.5 354 L 695 349.5 L 694.5 348 Q 697 352.5 699.5 347 L 704.5 345 L 706 345.5 L 706.5 344 Q 708 346.5 709.5 343 L 731.5 337 Z "></path><path fill="rgb(254,201,33)" stroke="rgb(254,201,33)" stroke-width="1" opacity="0.996078431372549" d="M 613.5 340 L 614 354.5 L 613 354.5 L 613.5 340 Z "></path><path fill="rgb(254,201,33)" stroke="rgb(254,201,33)" stroke-width="1" opacity="0.996078431372549" d="M 770.5 340 L 774 340.5 L 770.5 341 L 770.5 340 Z "></path><path fill="rgb(254,201,33)" stroke="rgb(254,201,33)" stroke-width="1" opacity="0.996078431372549" d="M 778.5 341 L 782 341.5 L 778.5 342 L 778.5 341 Z "></path><path fill="rgb(254,201,33)" stroke="rgb(254,201,33)" stroke-width="1" opacity="0.996078431372549" d="M 783.5 342 L 790 342.5 L 783.5 343 L 783.5 342 Z "></path><path fill="rgb(254,201,33)" stroke="rgb(254,201,33)" stroke-width="1" opacity="0.996078431372549" d="M 792.5 343 L 802 349.5 L 809 363.5 L 808 363.5 Q 805.1 351.9 796.5 346 Q 792.5 345.5 792.5 343 Z "></path><path fill="rgb(254,201,33)" stroke="rgb(254,201,33)" stroke-width="1" opacity="0.996078431372549" d="M 612.5 357 L 613 362.5 L 611.5 368 Q 608.8 366.8 611 365.5 L 612.5 357 Z "></path><path fill="rgb(254,201,33)" stroke="rgb(254,201,33)" stroke-width="1" opacity="0.996078431372549" d="M 676.5 365 L 677.5 367 L 676.5 365 Z "></path><path fill="rgb(254,201,33)" stroke="rgb(254,201,33)" stroke-width="1" opacity="0.996078431372549" d="M 610.5 369 L 611 372.5 L 610 372.5 L 610.5 369 Z "></path><path fill="rgb(254,201,33)" stroke="rgb(254,201,33)" stroke-width="1" opacity="0.996078431372549" d="M 809.5 370 L 810 372.5 L 809 372.5 L 809.5 370 Z "></path><path fill="rgb(254,201,33)" stroke="rgb(254,201,33)" stroke-width="1" opacity="0.996078431372549" d="M 608.5 374 Q 611.3 375.3 609 376.5 L 608.5 379 L 608 376.5 L 608.5 374 Z "></path><path fill="rgb(254,201,33)" stroke="rgb(254,201,33)" stroke-width="1" opacity="0.996078431372549" d="M 808.5 377 L 809 379.5 L 802.5 393 L 803 391.5 L 808 379.5 Q 805.8 378.2 808.5 377 Z "></path><path fill="rgb(254,201,33)" stroke="rgb(254,201,33)" stroke-width="1" opacity="0.996078431372549" d="M 805.5 379 L 803.5 382 L 805.5 379 Z "></path><path fill="rgb(254,201,33)" stroke="rgb(254,201,33)" stroke-width="1" opacity="0.996078431372549" d="M 607.5 380 L 606.5 382 L 605 381.5 L 607.5 380 Z "></path><path fill="rgb(254,201,33)" stroke="rgb(254,201,33)" stroke-width="1" opacity="0.996078431372549" d="M 605.5 384 L 606 385.5 L 604 386.5 L 605.5 384 Z "></path><path fill="rgb(254,201,33)" stroke="rgb(254,201,33)" stroke-width="1" opacity="0.996078431372549" d="M 602 389 L 604 389.5 L 602 390.5 L 602 389 Z "></path><path fill="rgb(254,201,33)" stroke="rgb(254,201,33)" stroke-width="1" opacity="0.996078431372549" d="M 793.5 393 L 792.5 395 L 793.5 393 Z "></path><path fill="rgb(254,201,33)" stroke="rgb(254,201,33)" stroke-width="1" opacity="0.996078431372549" d="M 799.5 395 L 800 396.5 L 798 397.5 L 799.5 395 Z "></path><path fill="rgb(254,201,33)" stroke="rgb(254,201,33)" stroke-width="1" opacity="0.996078431372549" d="M 794.5 398 L 797 398.5 Q 794 403 786.5 403 L 786.5 402 L 795 399.5 L 794.5 398 Z "></path><path fill="rgb(254,201,33)" stroke="rgb(254,201,33)" stroke-width="1" opacity="0.996078431372549" d="M 750.5 400 L 759 401.5 L 751.5 402 L 750.5 400 Z "></path><path fill="rgb(254,201,33)" stroke="rgb(254,201,33)" stroke-width="1" opacity="0.996078431372549" d="M 762.5 402 L 769 402.5 L 762.5 403 L 762.5 402 Z "></path><path fill="rgb(254,201,33)" stroke="rgb(254,201,33)" stroke-width="1" opacity="0.996078431372549" d="M 774.5 403 L 782 403.5 L 774.5 404 L 774.5 403 Z "></path><path fill="rgb(254,201,33)" stroke="rgb(254,201,33)" stroke-width="1" opacity="0.996078431372549" d="M 713.5 412 L 715.5 413 L 743.5 413 L 752 414.5 L 744.5 415 Q 743 412.5 737.5 414 L 716 419 L 715.5 421 L 715 419 L 713 419 L 713 421 Q 710.3 419.9 711 422.5 L 708.5 423 L 700.5 427 L 699 426.5 L 696.5 430 L 692 433.5 L 688 440.5 L 688 447.5 Q 690.6 454.9 696.5 459 L 710.5 467 L 715.5 468 L 717 467.5 L 716.5 469 L 734.5 474 L 736.5 474 L 753.5 475 L 754.5 476 L 756.5 476 L 768.5 476 L 770.5 475 L 773 476.5 L 755.5 477 L 754.5 478 L 724.5 478 L 722.5 477 L 720.5 477 Q 716.3 477.8 715.5 475 L 713.5 476 L 710 475 L 709.5 473 L 707.5 474 L 703 473 L 702.5 471 L 700.5 471 Q 685.6 466.4 677 455.5 L 675 451 L 673 450.5 L 674 448.5 Q 671.3 446.8 673 440.5 L 674 438.5 L 673.5 437 Q 675.8 437.8 675 435.5 L 684.5 425 L 689 422.5 L 689.5 421 L 691.5 421 L 704 415.5 L 703.5 414 L 706.5 415 L 713.5 412 Z "></path><path fill="rgb(254,201,33)" stroke="rgb(254,201,33)" stroke-width="1" opacity="0.996078431372549" d="M 753.5 414 L 757 414.5 L 753.5 415 L 753.5 414 Z "></path><path fill="rgb(254,201,33)" stroke="rgb(254,201,33)" stroke-width="1" opacity="0.996078431372549" d="M 762.5 415 L 766 415.5 L 762.5 416 L 762.5 415 Z "></path><path fill="rgb(254,201,33)" stroke="rgb(254,201,33)" stroke-width="1" opacity="0.996078431372549" d="M 767.5 416 L 772 416.5 L 767.5 417 L 767.5 416 Z "></path><path fill="rgb(254,201,33)" stroke="rgb(254,201,33)" stroke-width="1" opacity="0.996078431372549" d="M 775.5 416 L 779 417.5 L 777.5 417 Q 774.5 417.5 775.5 416 Z "></path><path fill="rgb(254,201,33)" stroke="rgb(254,201,33)" stroke-width="1" opacity="0.996078431372549" d="M 780 417 L 784 418.5 L 780 419 L 780 417 Z "></path><path fill="rgb(254,201,33)" stroke="rgb(254,201,33)" stroke-width="1" opacity="0.996078431372549" d="M 785.5 419 L 796 427.5 L 799 435.5 L 797 434.5 Q 796 425.5 789.5 422 Q 784.8 421.2 785.5 419 Z "></path><path fill="rgb(254,201,33)" stroke="rgb(254,201,33)" stroke-width="1" opacity="0.996078431372549" d="M 798.5 439 L 799 447.5 L 798 447.5 L 798.5 439 Z "></path><path fill="rgb(254,201,33)" stroke="rgb(254,201,33)" stroke-width="1" opacity="0.996078431372549" d="M 795.5 451 L 798 451.5 Q 795.9 454.8 795.5 451 Z "></path><path fill="rgb(254,201,33)" stroke="rgb(254,201,33)" stroke-width="1" opacity="0.996078431372549" d="M 796.5 454 L 796 455.5 Q 793.2 464.7 786.5 470 L 785 469.5 L 794 458.5 L 793.5 457 Q 795.8 457.8 795 455.5 L 796.5 454 Z "></path><path fill="rgb(254,201,33)" stroke="rgb(254,201,33)" stroke-width="1" opacity="0.996078431372549" d="M 788 462 L 790 462.5 L 788 463.5 L 788 462 Z "></path><path fill="rgb(254,201,33)" stroke="rgb(254,201,33)" stroke-width="1" opacity="0.996078431372549" d="M 774.5 475 L 777 475.5 L 774.5 476 L 774.5 475 Z "></path><path fill="rgb(254,201,33)" stroke="rgb(254,201,33)" stroke-width="1" opacity="0.996078431372549" d="M 680.5 488 L 701 489.5 L 693.5 490 L 692 491.5 L 692.5 493 L 690.5 492 L 685 498.5 L 682 504.5 L 682 509.5 L 680 511.5 L 683 513.5 L 684.5 518 L 685.5 516 L 686 517.5 L 685 519.5 L 689.5 525 Q 691.8 524.3 691 526.5 L 701 533 L 701.5 535 Q 702.8 532.8 704 535.5 L 704.5 537 L 706.5 536 L 716.5 540 L 731 540.5 L 715.5 541 L 714.5 540 L 695.5 539 L 688 537 Q 689.3 534 685.5 535 L 685.5 536 L 687 536.5 L 685.5 537 L 682.5 532 L 675 525.5 L 669 513.5 L 669 504.5 Q 671.9 494.9 678.5 489 L 680.5 488 Z "></path><path fill="rgb(254,201,33)" stroke="rgb(254,201,33)" stroke-width="1" opacity="0.996078431372549" d="M 765.5 489 L 772 489.5 Q 770.8 492.2 769.5 490 L 764.5 491 L 717.5 491 L 717.5 490 L 764.5 490 L 765.5 489 Z "></path><path fill="rgb(254,201,33)" stroke="rgb(254,201,33)" stroke-width="1" opacity="0.996078431372549" d="M 702.5 490 L 716 490.5 L 702.5 491 L 702.5 490 Z "></path><path fill="rgb(254,201,33)" stroke="rgb(254,201,33)" stroke-width="1" opacity="0.996078431372549" d="M 773.5 491 L 774.5 493 L 773.5 491 Z "></path><path fill="rgb(254,201,33)" stroke="rgb(254,201,33)" stroke-width="1" opacity="0.996078431372549" d="M 775.5 494 L 779 501.5 L 778 501.5 L 775.5 495 L 774 495.5 L 775.5 494 Z "></path><path fill="rgb(254,201,33)" stroke="rgb(254,201,33)" stroke-width="1" opacity="0.996078431372549" d="M 780.5 508 L 781 513.5 L 780 513.5 L 780.5 508 Z "></path><path fill="rgb(254,201,33)" stroke="rgb(254,201,33)" stroke-width="1" opacity="0.996078431372549" d="M 779.5 515 L 780 518.5 L 779 518.5 L 779.5 515 Z "></path><path fill="rgb(254,201,33)" stroke="rgb(254,201,33)" stroke-width="1" opacity="0.996078431372549" d="M 776.5 526 L 775 528.5 L 773.5 531 L 774 529.5 L 776.5 526 Z "></path><path fill="rgb(254,201,33)" stroke="rgb(254,201,33)" stroke-width="1" opacity="0.996078431372549" d="M 769 533 L 771 533.5 Q 766.3 540.3 755.5 541 L 755.5 540 Q 764.5 539.3 769 535 L 769 533 Z "></path><path fill="rgb(254,201,33)" stroke="rgb(254,201,33)" stroke-width="1" opacity="0.996078431372549" d="M 738.5 541 L 753 541.5 L 738.5 542 L 738.5 541 Z "></path><path fill="rgb(254,201,33)" stroke="rgb(254,201,33)" stroke-width="1" opacity="0.996078431372549" d="M 642.5 550 L 645 550.5 L 642.5 551 L 642.5 550 Z "></path><path fill="rgb(254,185,5)" stroke="rgb(254,185,5)" stroke-width="1" opacity="1" d="M 586.5 88 L 590 88.5 L 586.5 89 L 586.5 88 Z "></path><path fill="rgb(254,185,5)" stroke="rgb(254,185,5)" stroke-width="1" opacity="1" d="M 594.5 88 L 598 88.5 L 594.5 89 L 594.5 88 Z "></path><path fill="rgb(254,185,5)" stroke="rgb(254,185,5)" stroke-width="1" opacity="1" d="M 567.5 97 L 568 99.5 L 567 99.5 L 567.5 97 Z "></path><path fill="rgb(254,185,5)" stroke="rgb(254,185,5)" stroke-width="1" opacity="1" d="M 623.5 98 L 624.5 100 L 623.5 98 Z "></path><path fill="rgb(254,185,5)" stroke="rgb(254,185,5)" stroke-width="1" opacity="1" d="M 627.5 101 L 628.5 103 L 627.5 101 Z "></path><path fill="rgb(254,185,5)" stroke="rgb(254,185,5)" stroke-width="1" opacity="1" d="M 566.5 112 L 567 143.5 L 566 143.5 L 566.5 112 Z "></path><path fill="rgb(254,185,5)" stroke="rgb(254,185,5)" stroke-width="1" opacity="1" d="M 638.5 112 L 639.5 114 L 638.5 112 Z "></path><path fill="rgb(254,185,5)" stroke="rgb(254,185,5)" stroke-width="1" opacity="1" d="M 649.5 135 L 650 137.5 L 649 137.5 L 649.5 135 Z "></path><path fill="rgb(254,185,5)" stroke="rgb(254,185,5)" stroke-width="1" opacity="1" d="M 649.5 148 L 650 152.5 L 649 152.5 L 649.5 148 Z "></path><path fill="rgb(254,185,5)" stroke="rgb(254,185,5)" stroke-width="1" opacity="1" d="M 565.5 155 L 566 158.5 L 565 158.5 L 565.5 155 Z "></path><path fill="rgb(254,185,5)" stroke="rgb(254,185,5)" stroke-width="1" opacity="1" d="M 648.5 158 L 649 160.5 L 648 160.5 L 648.5 158 Z "></path><path fill="rgb(254,185,5)" stroke="rgb(254,185,5)" stroke-width="1" opacity="1" d="M 564.5 164 L 565 166.5 L 564 166.5 L 564.5 164 Z "></path><path fill="rgb(254,185,5)" stroke="rgb(254,185,5)" stroke-width="1" opacity="1" d="M 544.5 220 L 543.5 222 L 544.5 220 Z "></path><path fill="rgb(254,185,5)" stroke="rgb(254,185,5)" stroke-width="1" opacity="1" d="M 542.5 223 L 541.5 225 L 542.5 223 Z "></path><path fill="rgb(254,185,5)" stroke="rgb(254,185,5)" stroke-width="1" opacity="1" d="M 540.5 226 L 539.5 228 L 540.5 226 Z "></path><path fill="rgb(254,185,5)" stroke="rgb(254,185,5)" stroke-width="1" opacity="1" d="M 537.5 230 L 536.5 232 L 537.5 230 Z "></path><path fill="rgb(254,185,5)" stroke="rgb(254,185,5)" stroke-width="1" opacity="1" d="M 533.5 235 L 531.5 238 L 533.5 235 Z "></path><path fill="rgb(254,185,5)" stroke="rgb(254,185,5)" stroke-width="1" opacity="1" d="M 628.5 240 L 629 242.5 L 628 242.5 L 628.5 240 Z "></path><path fill="rgb(254,185,5)" stroke="rgb(254,185,5)" stroke-width="1" opacity="1" d="M 627.5 247 L 628 250.5 L 627 250.5 L 627.5 247 Z "></path><path fill="rgb(254,185,5)" stroke="rgb(254,185,5)" stroke-width="1" opacity="1" d="M 517.5 251 L 515.5 254 L 517.5 251 Z "></path><path fill="rgb(254,185,5)" stroke="rgb(254,185,5)" stroke-width="1" opacity="1" d="M 504.5 261 L 503.5 263 L 504.5 261 Z "></path><path fill="rgb(254,185,5)" stroke="rgb(254,185,5)" stroke-width="1" opacity="1" d="M 627.5 262 L 628 264.5 L 627 264.5 L 627.5 262 Z "></path><path fill="rgb(254,185,5)" stroke="rgb(254,185,5)" stroke-width="1" opacity="1" d="M 707.5 262 L 724 262.5 L 707.5 263 L 707.5 262 Z "></path><path fill="rgb(254,185,5)" stroke="rgb(254,185,5)" stroke-width="1" opacity="1" d="M 730.5 262 L 749 262.5 L 730.5 263 L 730.5 262 Z "></path><path fill="rgb(254,185,5)" stroke="rgb(254,185,5)" stroke-width="1" opacity="1" d="M 501.5 263 L 500.5 265 L 501.5 263 Z "></path><path fill="rgb(254,185,5)" stroke="rgb(254,185,5)" stroke-width="1" opacity="1" d="M 694.5 263 L 706 263.5 L 702.5 264 L 688 272.5 L 687.5 274 L 686.5 273 L 681.5 278 Q 679.3 277.3 680 279.5 L 676 284.5 L 676.5 286 Q 675.3 283.8 674 286.5 L 671 294.5 L 671 301.5 Q 674.8 312.8 683.5 319 L 688 321 Q 686.8 324 690.5 323 L 691.5 324 L 712 324.5 L 686.5 325 L 685.5 326 L 677.5 326 L 654.5 330 L 633.5 323 L 623 313.5 Q 618.4 307.7 620 295.5 Q 622.7 285.8 630.5 281 Q 640.5 273.5 654.5 270 L 671.5 266 L 683.5 265 L 684.5 264 L 693.5 264 L 694.5 263 Z "></path><path fill="rgb(254,185,5)" stroke="rgb(254,185,5)" stroke-width="1" opacity="1" d="M 757.5 263 L 766 263.5 L 757.5 264 L 757.5 263 Z "></path><path fill="rgb(254,185,5)" stroke="rgb(254,185,5)" stroke-width="1" opacity="1" d="M 776.5 268 L 777.5 270 L 776.5 268 Z "></path><path fill="rgb(254,185,5)" stroke="rgb(254,185,5)" stroke-width="1" opacity="1" d="M 780.5 272 L 781.5 274 L 780.5 272 Z "></path><path fill="rgb(254,185,5)" stroke="rgb(254,185,5)" stroke-width="1" opacity="1" d="M 788.5 291 L 789 297.5 L 788 297.5 L 788.5 291 Z "></path><path fill="rgb(254,185,5)" stroke="rgb(254,185,5)" stroke-width="1" opacity="1" d="M 405.5 308 L 404.5 310 L 405.5 308 Z "></path><path fill="rgb(254,185,5)" stroke="rgb(254,185,5)" stroke-width="1" opacity="1" d="M 402.5 310 L 401.5 312 L 402.5 310 Z "></path><path fill="rgb(254,185,5)" stroke="rgb(254,185,5)" stroke-width="1" opacity="1" d="M 781.5 315 L 777.5 320 L 781.5 315 Z "></path><path fill="rgb(254,185,5)" stroke="rgb(254,185,5)" stroke-width="1" opacity="1" d="M 396.5 316 L 395.5 318 L 396.5 316 Z "></path><path fill="rgb(254,185,5)" stroke="rgb(254,185,5)" stroke-width="1" opacity="1" d="M 394.5 319 L 394 320.5 L 393.5 322 L 393 320.5 L 394.5 319 Z "></path><path fill="rgb(254,185,5)" stroke="rgb(254,185,5)" stroke-width="1" opacity="1" d="M 612.5 323 L 613 325.5 L 612 325.5 L 612.5 323 Z "></path><path fill="rgb(254,185,5)" stroke="rgb(254,185,5)" stroke-width="1" opacity="1" d="M 715.5 324 L 732 324.5 L 715.5 325 L 715.5 324 Z "></path><path fill="rgb(254,185,5)" stroke="rgb(254,185,5)" stroke-width="1" opacity="1" d="M 765.5 324 L 768 324.5 L 765.5 325 L 765.5 324 Z "></path><path fill="rgb(254,185,5)" stroke="rgb(254,185,5)" stroke-width="1" opacity="1" d="M 743.5 325 L 750 325.5 L 743.5 326 L 743.5 325 Z "></path><path fill="rgb(254,185,5)" stroke="rgb(254,185,5)" stroke-width="1" opacity="1" d="M 390.5 329 L 391 332.5 L 390 332.5 L 390.5 329 Z "></path><path fill="rgb(254,185,5)" stroke="rgb(254,185,5)" stroke-width="1" opacity="1" d="M 613.5 330 L 614 333.5 L 613 333.5 L 613.5 330 Z "></path><path fill="rgb(254,185,5)" stroke="rgb(254,185,5)" stroke-width="1" opacity="1" d="M 701.5 336 L 729.5 336 L 731 337.5 Q 717 339 707.5 345 L 706 344.5 L 705.5 346 L 703.5 346 Q 698.4 346.4 696.5 350 Q 695 347.5 693.5 351 L 682 360.5 L 679 366.5 L 678 372.5 Q 680.4 382.6 687.5 388 L 706.5 399 L 712 399.5 L 690.5 400 L 689.5 401 L 675.5 401 L 666.5 403 L 657.5 403 Q 641.4 398.9 631 390 L 625 378.5 L 625 366.5 Q 628 356 636.5 351 L 643.5 347 L 661.5 341 L 678.5 338 L 700.5 337 L 701.5 336 Z "></path><path fill="rgb(254,185,5)" stroke="rgb(254,185,5)" stroke-width="1" opacity="1" d="M 739.5 337 L 748 337.5 L 739.5 338 L 739.5 337 Z "></path><path fill="rgb(254,185,5)" stroke="rgb(254,185,5)" stroke-width="1" opacity="1" d="M 754.5 338 L 760 338.5 L 754.5 339 L 754.5 338 Z "></path><path fill="rgb(254,185,5)" stroke="rgb(254,185,5)" stroke-width="1" opacity="1" d="M 765.5 339 L 769 339.5 L 765.5 340 L 765.5 339 Z "></path><path fill="rgb(254,185,5)" stroke="rgb(254,185,5)" stroke-width="1" opacity="1" d="M 774.5 340 L 778 340.5 L 774.5 341 L 774.5 340 Z "></path><path fill="rgb(254,185,5)" stroke="rgb(254,185,5)" stroke-width="1" opacity="1" d="M 782.5 341 L 785 341.5 L 782.5 342 L 782.5 341 Z "></path><path fill="rgb(254,185,5)" stroke="rgb(254,185,5)" stroke-width="1" opacity="1" d="M 797.5 345 L 798.5 347 L 797.5 345 Z "></path><path fill="rgb(254,185,5)" stroke="rgb(254,185,5)" stroke-width="1" opacity="1" d="M 390.5 347 L 406 369.5 L 420 384.5 L 422 389 L 427.5 392 L 442 405.5 L 442.5 408 L 443.5 406 L 462.5 420 L 468.5 422 L 479.5 429 Q 481 426.5 482.5 430 L 496 435.5 Q 493.8 436.8 496.5 438 L 497 436 L 501.5 438 L 528.5 444 L 553.5 445 L 554.5 446 L 555.5 445 L 579.5 443 L 592 439.5 L 591.5 438 L 595.5 439 L 606 435.5 L 605.5 434 L 608 434.5 Q 605.8 439.2 607 447.5 Q 610.5 462 621.5 469 L 634 476.5 Q 619.5 481 611 491.5 Q 605.3 497.8 607 511.5 Q 610.8 522.8 619.5 529 L 635 537.5 L 611.5 538 L 610.5 537 L 592.5 537 L 591.5 536 L 553.5 534 L 552.5 533 L 533.5 532 L 532.5 531 L 525.5 531 L 524.5 530 L 506.5 528 L 469.5 518 L 453 509.5 L 436.5 445 L 435 447.5 L 435 455.5 L 434 456.5 L 433 472.5 L 432 473.5 L 429 503 Q 407.1 501.8 397 487.5 L 393 480.5 L 390 469.5 L 390.5 347 Z "></path><path fill="rgb(254,185,5)" stroke="rgb(254,185,5)" stroke-width="1" opacity="1" d="M 802.5 350 L 803.5 352 L 802.5 350 Z "></path><path fill="rgb(254,185,5)" stroke="rgb(254,185,5)" stroke-width="1" opacity="1" d="M 613.5 355 L 614 358.5 L 613 358.5 L 613.5 355 Z "></path><path fill="rgb(254,185,5)" stroke="rgb(254,185,5)" stroke-width="1" opacity="1" d="M 612.5 363 L 613 365.5 L 612 365.5 L 612.5 363 Z "></path><path fill="rgb(254,185,5)" stroke="rgb(254,185,5)" stroke-width="1" opacity="1" d="M 802.5 393 L 800.5 396 L 802.5 393 Z "></path><path fill="rgb(254,185,5)" stroke="rgb(254,185,5)" stroke-width="1" opacity="1" d="M 599.5 396 L 598.5 398 L 599.5 396 Z "></path><path fill="rgb(254,185,5)" stroke="rgb(254,185,5)" stroke-width="1" opacity="1" d="M 797.5 398 L 796.5 400 L 797.5 398 Z "></path><path fill="rgb(254,185,5)" stroke="rgb(254,185,5)" stroke-width="1" opacity="1" d="M 597.5 399 L 596.5 401 L 597.5 399 Z "></path><path fill="rgb(254,185,5)" stroke="rgb(254,185,5)" stroke-width="1" opacity="1" d="M 727.5 400 L 737 400.5 L 727.5 401 L 727.5 400 Z "></path><path fill="rgb(254,185,5)" stroke="rgb(254,185,5)" stroke-width="1" opacity="1" d="M 745.5 401 L 751 401.5 L 745.5 402 L 745.5 401 Z "></path><path fill="rgb(254,185,5)" stroke="rgb(254,185,5)" stroke-width="1" opacity="1" d="M 757.5 402 L 762 402.5 L 757.5 403 L 757.5 402 Z "></path><path fill="rgb(254,185,5)" stroke="rgb(254,185,5)" stroke-width="1" opacity="1" d="M 767.5 403 L 774 403.5 L 767.5 404 L 767.5 403 Z "></path><path fill="rgb(254,185,5)" stroke="rgb(254,185,5)" stroke-width="1" opacity="1" d="M 782.5 403 L 786 403.5 L 782.5 404 L 782.5 403 Z "></path><path fill="rgb(254,185,5)" stroke="rgb(254,185,5)" stroke-width="1" opacity="1" d="M 593.5 404 L 591.5 407 L 593.5 404 Z "></path><path fill="rgb(254,185,5)" stroke="rgb(254,185,5)" stroke-width="1" opacity="1" d="M 634.5 406 L 638 408.5 L 635.5 410 L 635.5 409 L 637 408.5 L 634.5 406 Z "></path><path fill="rgb(254,185,5)" stroke="rgb(254,185,5)" stroke-width="1" opacity="1" d="M 627.5 407 L 620.5 415 L 627.5 407 Z "></path><path fill="rgb(254,185,5)" stroke="rgb(254,185,5)" stroke-width="1" opacity="1" d="M 630.5 411 L 632 411.5 L 628.5 413 L 628.5 412 L 630.5 411 Z "></path><path fill="rgb(254,185,5)" stroke="rgb(254,185,5)" stroke-width="1" opacity="1" d="M 688.5 412 L 713 412.5 Q 700 415.5 690.5 422 L 689 421.5 L 687.5 424 L 684.5 425 L 677 432.5 L 675 437 L 673 437.5 L 674 439.5 Q 671.3 441.2 673 447.5 L 674 449.5 L 673.5 451 Q 675.8 450.3 675 452.5 L 678.5 457 L 680 456.5 L 679 457.5 L 683.5 462 L 701.5 472 L 703 471.5 Q 702.1 474.5 706.5 473 L 708.5 474 L 710 473.5 Q 709.2 476.1 712.5 475 L 714.5 476 Q 716 473.5 717.5 477 L 721 477.5 L 704.5 478 L 703.5 477 L 682.5 476 L 652.5 470 L 632.5 462 L 622 452.5 L 619 446.5 L 619 438.5 Q 621.6 431.1 627.5 427 L 636.5 422 L 652.5 417 L 668.5 414 L 687.5 413 L 688.5 412 Z "></path><path fill="rgb(254,185,5)" stroke="rgb(254,185,5)" stroke-width="1" opacity="1" d="M 715.5 412 L 735 412.5 L 715.5 413 L 715.5 412 Z "></path><path fill="rgb(254,185,5)" stroke="rgb(254,185,5)" stroke-width="1" opacity="1" d="M 626.5 413 L 625.5 415 L 623.5 416 L 624.5 414 L 626.5 413 Z "></path><path fill="rgb(254,185,5)" stroke="rgb(254,185,5)" stroke-width="1" opacity="1" d="M 744.5 413 L 750 413.5 L 744.5 414 L 744.5 413 Z "></path><path fill="rgb(254,185,5)" stroke="rgb(254,185,5)" stroke-width="1" opacity="1" d="M 583.5 414 L 580.5 418 L 583.5 414 Z "></path><path fill="rgb(254,185,5)" stroke="rgb(254,185,5)" stroke-width="1" opacity="1" d="M 757.5 414 L 761 414.5 L 757.5 415 L 757.5 414 Z "></path><path fill="rgb(254,185,5)" stroke="rgb(254,185,5)" stroke-width="1" opacity="1" d="M 766.5 415 L 773 415.5 L 766.5 416 L 766.5 415 Z "></path><path fill="rgb(254,185,5)" stroke="rgb(254,185,5)" stroke-width="1" opacity="1" d="M 617.5 416 L 615.5 419 L 617.5 416 Z "></path><path fill="rgb(254,185,5)" stroke="rgb(254,185,5)" stroke-width="1" opacity="1" d="M 621.5 416 L 620.5 418 L 621.5 416 Z "></path><path fill="rgb(254,185,5)" stroke="rgb(254,185,5)" stroke-width="1" opacity="1" d="M 577.5 419 L 576.5 421 L 577.5 419 Z "></path><path fill="rgb(254,185,5)" stroke="rgb(254,185,5)" stroke-width="1" opacity="1" d="M 613.5 419 L 612.5 421 L 613.5 419 Z "></path><path fill="rgb(254,185,5)" stroke="rgb(254,185,5)" stroke-width="1" opacity="1" d="M 617.5 419 L 613.5 424 L 617.5 419 Z "></path><path fill="rgb(254,185,5)" stroke="rgb(254,185,5)" stroke-width="1" opacity="1" d="M 574.5 421 L 573.5 423 L 574.5 421 Z "></path><path fill="rgb(254,185,5)" stroke="rgb(254,185,5)" stroke-width="1" opacity="1" d="M 610.5 421 L 609.5 423 L 607.5 424 L 608.5 422 L 610.5 421 Z "></path><path fill="rgb(254,185,5)" stroke="rgb(254,185,5)" stroke-width="1" opacity="1" d="M 790.5 421 L 794.5 426 L 790.5 421 Z "></path><path fill="rgb(254,185,5)" stroke="rgb(254,185,5)" stroke-width="1" opacity="1" d="M 571.5 423 L 570.5 425 L 571.5 423 Z "></path><path fill="rgb(254,185,5)" stroke="rgb(254,185,5)" stroke-width="1" opacity="1" d="M 566.5 426 L 565.5 428 L 560.5 430 L 560.5 429 L 566.5 426 Z "></path><path fill="rgb(254,185,5)" stroke="rgb(254,185,5)" stroke-width="1" opacity="1" d="M 611.5 426 L 611 427.5 L 608.5 433 L 608 431.5 L 611.5 426 Z "></path><path fill="rgb(254,185,5)" stroke="rgb(254,185,5)" stroke-width="1" opacity="1" d="M 594.5 429 L 596 429.5 L 592.5 431 L 592.5 430 L 594.5 429 Z "></path><path fill="rgb(254,185,5)" stroke="rgb(254,185,5)" stroke-width="1" opacity="1" d="M 540.5 435 L 543 435.5 L 540.5 436 L 540.5 435 Z "></path><path fill="rgb(254,185,5)" stroke="rgb(254,185,5)" stroke-width="1" opacity="1" d="M 536.5 436 L 538 436.5 L 536 437 Q 537.5 440.7 534.5 440 L 535 438.5 L 536.5 436 Z "></path><path fill="rgb(254,185,5)" stroke="rgb(254,185,5)" stroke-width="1" opacity="1" d="M 574.5 436 L 577 436.5 L 574.5 437 L 574.5 436 Z "></path><path fill="rgb(254,185,5)" stroke="rgb(254,185,5)" stroke-width="1" opacity="1" d="M 799.5 437 L 800 444.5 L 799 444.5 L 799.5 437 Z "></path><path fill="rgb(254,185,5)" stroke="rgb(254,185,5)" stroke-width="1" opacity="1" d="M 562.5 439 L 565 439.5 L 558.5 441 L 558.5 440 L 562.5 439 Z "></path><path fill="rgb(254,185,5)" stroke="rgb(254,185,5)" stroke-width="1" opacity="1" d="M 536.5 441 L 540 442.5 L 538.5 443 L 536.5 441 Z "></path><path fill="rgb(254,185,5)" stroke="rgb(254,185,5)" stroke-width="1" opacity="1" d="M 552.5 441 L 557 441.5 L 552.5 442 L 552.5 441 Z "></path><path fill="rgb(254,185,5)" stroke="rgb(254,185,5)" stroke-width="1" opacity="1" d="M 546.5 442 L 551 442.5 L 541.5 444 L 541.5 443 L 546.5 442 Z "></path><path fill="rgb(254,185,5)" stroke="rgb(254,185,5)" stroke-width="1" opacity="1" d="M 791.5 464 L 790.5 466 L 791.5 464 Z "></path><path fill="rgb(254,185,5)" stroke="rgb(254,185,5)" stroke-width="1" opacity="1" d="M 785.5 470 L 784.5 472 L 785.5 470 Z "></path><path fill="rgb(254,185,5)" stroke="rgb(254,185,5)" stroke-width="1" opacity="1" d="M 755.5 477 L 764 477.5 L 755.5 478 L 755.5 477 Z "></path><path fill="rgb(254,185,5)" stroke="rgb(254,185,5)" stroke-width="1" opacity="1" d="M 654.5 483 L 683 487.5 L 677 490.5 L 670 501.5 L 669 513.5 Q 672.7 525.3 681.5 532 L 683.5 533 L 685 532.5 Q 682.8 533.8 685.5 535 L 688 535 Q 686.9 537.7 689.5 537 L 695 538.5 L 690.5 539 L 667.5 535 L 643.5 528 Q 629.7 523.3 621 513.5 Q 617.8 510.2 619 502.5 L 625.5 494 L 636.5 488 L 654.5 483 Z "></path><path fill="rgb(254,185,5)" stroke="rgb(254,185,5)" stroke-width="1" opacity="1" d="M 688.5 488 L 693 488.5 L 688.5 489 L 688.5 488 Z "></path><path fill="rgb(254,185,5)" stroke="rgb(254,185,5)" stroke-width="1" opacity="1" d="M 701.5 489 L 708 489.5 L 701.5 490 L 701.5 489 Z "></path><path fill="rgb(254,185,5)" stroke="rgb(254,185,5)" stroke-width="1" opacity="1" d="M 758.5 489 L 765 489.5 L 758.5 490 L 758.5 489 Z "></path><path fill="rgb(254,185,5)" stroke="rgb(254,185,5)" stroke-width="1" opacity="1" d="M 772.5 489 L 773.5 491 L 772.5 489 Z "></path><path fill="rgb(254,185,5)" stroke="rgb(254,185,5)" stroke-width="1" opacity="1" d="M 780.5 505 L 781 507.5 L 780 507.5 L 780.5 505 Z "></path><path fill="rgb(254,185,5)" stroke="rgb(254,185,5)" stroke-width="1" opacity="1" d="M 780.5 514 L 781 516.5 L 780 516.5 L 780.5 514 Z "></path><path fill="rgb(254,185,5)" stroke="rgb(254,185,5)" stroke-width="1" opacity="1" d="M 773.5 531 L 770.5 535 L 773.5 531 Z "></path><path fill="rgb(254,185,5)" stroke="rgb(254,185,5)" stroke-width="1" opacity="1" d="M 698.5 539 L 703 539.5 L 698.5 540 L 698.5 539 Z "></path><path fill="rgb(254,185,5)" stroke="rgb(254,185,5)" stroke-width="1" opacity="1" d="M 709.5 540 L 715 540.5 L 709.5 541 L 709.5 540 Z "></path><path fill="rgb(254,185,5)" stroke="rgb(254,185,5)" stroke-width="1" opacity="1" d="M 725.5 541 L 738 541.5 L 725.5 542 L 725.5 541 Z "></path><path fill="rgb(254,185,5)" stroke="rgb(254,185,5)" stroke-width="1" opacity="1" d="M 753.5 541 L 756 541.5 L 753.5 542 L 753.5 541 Z "></path><path fill="rgb(255,202,35)" stroke="rgb(255,202,35)" stroke-width="1" opacity="1" d="M 587.5 89 L 589.5 89 L 606.5 91 L 621 97 Q 619.9 99.7 622.5 99 L 628 102 Q 626.9 104.7 629.5 104 L 637.5 113 Q 640.1 112.2 639 115.5 L 642 117 L 649 136.5 L 649 148.5 L 648 152.5 L 649 154.5 L 647 160.5 L 647 162.5 L 645 171.5 L 645 173.5 Q 643.8 184.8 639 192.5 L 639 194.5 L 636 205.5 L 636 207.5 L 633 214.5 L 633 220.5 L 628 234.5 L 628 238.5 L 627 243.5 L 627 245.5 L 626 250.5 L 626 252.5 Q 624.5 262 627 267.5 L 618 274 L 615.5 278 L 610 281.5 L 608.5 284 Q 605.5 283.1 607 287.5 Q 604 291.5 605 299.5 L 607 309.5 L 609 311.5 L 610 316.5 L 610 318.5 L 612 325.5 L 611 328.5 L 614 339.5 L 613 340.5 L 613 356.5 L 610 366.5 L 611 368.5 Q 608.8 369.8 610 374.5 L 606.5 381 L 605 381.5 L 607 382.5 Q 603.4 384.4 604 389 Q 601 387.8 602 391.5 Q 598.8 395 593 395 L 592.5 397 L 589.5 396 L 578.5 400 L 572.5 400 L 564.5 402 L 536.5 402 L 530.5 400 L 517.5 399 L 515.5 397 L 496.5 392 L 482.5 384 L 480 384 L 478.5 381 L 470 377 Q 471.1 374.3 468.5 375 L 458 367.5 Q 458.8 365.3 456.5 366 L 452 363 Q 453.1 360.3 450.5 361 L 448 360 L 441.5 352 Q 439.3 352.8 440 350.5 L 439 348 Q 436.3 349.1 437 346.5 L 434 342 L 431 340.5 L 428.5 337 L 427 336.5 Q 429.5 335 426 333.5 L 425 330 L 422 328.5 L 414 314.5 L 410 310.5 L 410 308.5 Q 409.3 306.3 411.5 307 L 412.5 306 L 415 307.5 Q 414.2 304.9 417.5 306 L 457.5 290 L 501 266 Q 499.8 263 503.5 264 L 517 254 Q 515.9 251.3 518.5 252 L 529 242.5 L 532 237 L 536 234.5 L 538 230 L 540 230 Q 538.9 227.3 541.5 228 Q 539.9 226.3 543 224.5 L 550 213.5 L 556 201.5 L 556 198.5 L 559 194.5 L 563 181.5 L 565 171.5 L 565 164.5 L 566 163.5 L 566 161.5 L 567 152.5 L 567 150.5 L 568 111.5 L 568 109.5 Q 566.5 102 569 98.5 L 569 96.5 L 569 95 L 572 95 Q 570.9 92.3 573.5 93 L 587.5 89 Z "></path><path fill="rgb(255,202,35)" stroke="rgb(255,202,35)" stroke-width="1" opacity="1" d="M 728.5 263 L 743.5 263 L 746.5 264 L 751.5 263 L 758.5 265 L 762.5 265 L 768.5 265 L 773.5 267 L 782 274.5 L 785 282.5 L 784.5 284 Q 787.1 283.2 786 286.5 L 788 290.5 L 787 293.5 L 787 302.5 L 782 315 L 778 317.5 Q 778.8 319.8 776.5 319 L 767.5 324 L 764.5 323 L 761.5 325 L 747.5 325 L 744.5 324 L 729.5 324 L 728.5 323 L 726.5 323 L 718.5 324 L 714.5 323 L 712.5 323 L 707.5 321 L 706 321.5 Q 706.8 319.3 704.5 320 Q 694.2 315.8 688 307.5 L 685 299.5 L 685 294.5 L 688.5 284 Q 690.3 286.8 692 282.5 L 695.5 278 L 708 271 Q 706.6 267.3 712.5 269 L 728.5 263 Z M 778 312 Q 776 315 779 314 L 778 312 Z "></path><path fill="rgb(255,202,35)" stroke="rgb(255,202,35)" stroke-width="1" opacity="1" d="M 785.5 328 L 786 330 L 784 329.5 L 785.5 328 Z "></path><path fill="rgb(255,202,35)" stroke="rgb(255,202,35)" stroke-width="1" opacity="1" d="M 750.5 340 L 754.5 341 L 755.5 340 L 764.5 340 L 768.5 341 L 770.5 341 L 775.5 342 L 777.5 341 Q 782.5 344 791.5 343 L 803 352.5 Q 808.1 359.4 810 369.5 L 809 372.5 L 809 374.5 L 808 377.5 Q 810.5 379 807 380.5 L 807 383.5 L 800.5 395 L 798 396.5 Q 798.8 398.8 796.5 398 L 792.5 401 L 785.5 403 L 783.5 402 L 782.5 403 L 771.5 403 L 768.5 402 Q 762.2 403.8 760.5 401 L 758.5 401 Q 752.3 402.8 750.5 400 L 748.5 400 L 739.5 400 L 738.5 399 L 736.5 399 L 721.5 396 Q 709.1 391.9 700.5 384 L 698 384 L 694 374 Q 691 375 692 372 Q 695.3 373.3 694 368.5 L 699 359 L 704 356.5 Q 703.3 354.3 705.5 355 L 718.5 348 L 727.5 345 L 731.5 345 L 736.5 342 L 740.5 342 Q 747.2 342.7 750.5 340 Z "></path><path fill="rgb(255,202,35)" stroke="rgb(255,202,35)" stroke-width="1" opacity="1" d="M 442.5 356 L 443.5 358 L 442.5 356 Z "></path><path fill="rgb(255,202,35)" stroke="rgb(255,202,35)" stroke-width="1" opacity="1" d="M 462 374 Q 465 373 464 376 Q 461 377 462 374 Z "></path><path fill="rgb(255,202,35)" stroke="rgb(255,202,35)" stroke-width="1" opacity="1" d="M 526 402 Q 529 401 528 404 Q 525 405 526 402 Z "></path><path fill="rgb(255,202,35)" stroke="rgb(255,202,35)" stroke-width="1" opacity="1" d="M 576 404 Q 579 403 578 406 Q 575 407 576 404 Z "></path><path fill="rgb(255,202,35)" stroke="rgb(255,202,35)" stroke-width="1" opacity="1" d="M 737.5 414 L 751.5 415 L 753.5 415 L 760.5 416 L 762.5 416 L 771.5 417 L 774.5 416 L 778.5 418 L 780 417.5 Q 779.1 420.9 784.5 419 L 795 427.5 L 797 434.5 L 799 436.5 L 798 439.5 L 798 450.5 L 796 452.5 Q 798.5 454 795 455.5 Q 795.8 457.8 793.5 457 L 793 459.5 L 792 462.5 L 783.5 472 L 779.5 474 L 778 473.5 Q 778.9 476.5 774.5 475 L 771.5 476 L 769.5 475 L 768.5 476 L 756.5 476 L 753.5 475 L 743.5 475 L 735.5 473 L 733.5 473 L 722.5 471 L 706.5 465 L 705 465.5 L 705.5 464 L 703.5 465 L 703.5 463 Q 695.8 459.8 691 453.5 L 688 447.5 L 688 440.5 L 695.5 430 L 699 427.5 L 699.5 426 L 701.5 426 L 709 422.5 L 708.5 421 L 711 422.5 Q 710.3 419.9 713 421 L 713 419 L 715 419 L 715.5 421 L 716 419 L 737.5 414 Z M 788 462 L 788 464 L 790 463 L 788 462 Z "></path><path fill="rgb(255,202,35)" stroke="rgb(255,202,35)" stroke-width="1" opacity="1" d="M 693.5 490 L 715.5 491 L 717.5 491 L 764.5 491 L 769.5 490 L 771.5 490 Q 773.8 489.3 773 491.5 L 780 504.5 L 779 506.5 Q 781.7 508.3 780 514.5 L 778 523.5 L 771.5 533 L 769 533 Q 770.1 535.7 767.5 535 Q 762.7 539.7 754.5 541 L 733.5 541 L 730.5 540 L 716.5 540 L 705.5 536 L 704 536.5 L 702.5 534 L 701 534.5 Q 701.8 532.3 699.5 533 L 691 526.5 Q 691.8 524.3 689.5 525 L 686 521.5 L 681.5 512 L 680 511.5 L 682 509.5 L 682 504.5 L 685 498.5 L 690.5 492 L 693.5 490 Z "></path></svg>